<svg width="80" height="80" viewBox="0 0 80 80" fill="none" xmlns="http://www.w3.org/2000/svg">
<path fill-rule="evenodd" clip-rule="evenodd" d="M0 3.14317C0 6.12945 0.231703 6.30342 4.63902 6.61186L9.27904 6.93739L15.9262 31.3004C20.5375 48.2042 23.2634 56.4565 24.827 58.2495C27.0697 60.8238 27.1717 60.8355 47.529 60.8355C67.811 60.8355 67.9961 60.8153 70.2013 58.2837C72.6817 55.4393 80.4408 26.9736 79.9804 22.4131L79.71 19.7449L49.7945 19.462L19.879 19.1803L17.762 11.4574C14.8677 0.897592 13.9686 0 6.28273 0H0V3.14317ZM27.9233 68.52C25.9478 70.6493 26.438 77.6656 28.6501 78.9421C31.4444 80.5537 35.2764 80.2933 37.0617 78.3701C38.8985 76.3892 39.1243 70.3472 37.4291 68.52C35.8923 66.8636 29.46 66.8636 27.9233 68.52ZM57.6289 68.52C55.6534 70.6493 56.1436 77.6656 58.3557 78.9421C61.15 80.5537 64.982 80.2933 66.7673 78.3701C68.6041 76.3892 68.8299 70.3472 67.1347 68.52C65.5979 66.8636 59.1656 66.8636 57.6289 68.52Z" fill="white"/>
</svg>
